<?xml version="1.0" encoding="utf-8"?>
<!-- Generator: Adobe Illustrator 21.0.0, SVG Export Plug-In . SVG Version: 6.00 Build 0)  -->
<svg version="1.1" id="Layer_1" xmlns="http://www.w3.org/2000/svg" xmlns:xlink="http://www.w3.org/1999/xlink" x="0px" y="0px"
	 viewBox="0 0 15 15" xml:space="preserve" width="200" height="200">
<style type="text/css">
	.st0{fill:#FFFFFF;}
	.st1{filter:url(#Adobe_OpacityMaskFilter);}
	.st2{mask:url(#mask-2);}
	.st3{fill:#516173;}
	.st4{fill:none;stroke:#000000;stroke-opacity:0.1;}
	.st5{filter:url(#Adobe_OpacityMaskFilter_1_);}
	.st6{mask:url(#mask-4);}
	.st7{fill:#F1F4F8;}
</style>
<g id="ICO_black">
	<g id="Desktop_1">
		<g id="Button_x2F_Small_x2F_Icon-Only">

			<g id="Icon_x2F_fullscreen" >
				<g id="Dropdown-Arrow">
				</g>
				<defs>
					<filter id="Adobe_OpacityMaskFilter_1_" filterUnits="userSpaceOnUse" x="0" y="0" width="16" height="16">
						<feColorMatrix  type="matrix" values="1 0 0 0 0  0 1 0 0 0  0 0 1 0 0  0 0 0 1 0"/>
					</filter>
				</defs>
				<mask maskUnits="userSpaceOnUse" x="0" y="0" width="16" height="16" id="mask-4">
					<g class="st5">
						<path id="path-3" class="st0" d="M14.8,14.9C14.7,15,14.6,15,14.5,15h-4c-0.3,0-0.5-0.2-0.5-0.5c0-0.3,0.2-0.5,0.5-0.5H14
							v-3.5c0-0.3,0.2-0.5,0.5-0.5c0.3,0,0.5,0.2,0.5,0.5v4C15,14.7,14.9,14.8,14.8,14.9L14.8,14.9z M1.1,1.2C1.2,1.1,1.3,1,1.5,1h4
							C5.7,1,6,1.3,6,1.5C6,1.8,5.7,2,5.5,2H2v3.5C2,5.8,1.7,6,1.5,6C1.2,6,1,5.8,1,5.5v-4C1,1.4,1,1.3,1.1,1.2L1.1,1.2z M14.8,1.2
							C14.9,1.3,15,1.4,15,1.5v4C15,5.8,14.7,6,14.5,6C14.2,6,14,5.8,14,5.5V2h-3.5C10.2,2,10,1.8,10,1.5C10,1.3,10.2,1,10.5,1h4
							C14.6,1,14.7,1.1,14.8,1.2L14.8,1.2z M2,14h3.5C5.7,14,6,14.3,6,14.5C6,14.8,5.7,15,5.5,15h-4c-0.1,0-0.3-0.1-0.4-0.1
							C1,14.8,1,14.7,1,14.5v-4C1,10.3,1.2,10,1.5,10C1.7,10,2,10.3,2,10.5V14z"/>
					</g>
				</mask>
				<g id="UI_x2F_Color_x2F_Flat_x2F_Light-Blue" class="st6">
					<rect id="Base_2_" x="0" y="0" class="st7" width="16" height="16"/>
				</g>
			</g>
		</g>
	</g>
</g>
</svg>
