<?xml version="1.0" encoding="utf-8"?>
<!-- Generator: Adobe Illustrator 21.0.0, SVG Export Plug-In . SVG Version: 6.00 Build 0)  -->
<svg version="1.1" id="Layer_1" xmlns="http://www.w3.org/2000/svg" xmlns:xlink="http://www.w3.org/1999/xlink" x="0px" y="0px"
	 viewBox="0 0 22 21" style="enable-background:new 0 0 22 21;" xml:space="preserve">
<style type="text/css">
	.st0{fill:#FFFFFF;}
	.st1{filter:url(#Adobe_OpacityMaskFilter);}
	.st2{mask:url(#mask-2);}
	.st3{fill:#273142;}
	.st4{fill:none;stroke:#1BB934;}
	.st5{filter:url(#Adobe_OpacityMaskFilter_1_);}
	.st6{mask:url(#mask-4);}
	.st7{fill:#F85359;}
	.st8{filter:url(#Adobe_OpacityMaskFilter_2_);}
	.st9{mask:url(#mask-6);}
	.st10{fill:#39B54A;}
</style>
<g id="ICO_black">
	<g id="Desktop_1" transform="translate(-1206.000000, -134.000000)">
		<g id="Trade" transform="translate(997.000000, 120.000000)">
			<g id="Button_x2F_Small_x2F_Icon-Only" transform="translate(209.000000, 14.000000)">

				<g id="Icon_x2F_Check_x5F_2" transform="translate(3.000000, 2.500000)">
					<defs>
						<filter id="Adobe_OpacityMaskFilter_1_" filterUnits="userSpaceOnUse" x="-7.7" y="-11.1" width="22.6" height="22.6">
							<feColorMatrix  type="matrix" values="1 0 0 0 0  0 1 0 0 0  0 0 1 0 0  0 0 0 1 0"/>
						</filter>
					</defs>
					<mask maskUnits="userSpaceOnUse" x="-7.7" y="-11.1" width="22.6" height="22.6" id="mask-4">
						<g class="st5">
							<path id="path-3" class="st0" d="M6.4,8C6,8.4,5.4,8.4,5,8L3.5,6.5c-0.4-0.4-0.4-1,0-1.4c0.4-0.4,1-0.4,1.4,0l0.8,0.8
								l3.4-3.4c0.4-0.4,1-0.4,1.4,0c0.4,0.4,0.4,1,0,1.4L6.4,8z"/>
						</g>
					</mask>
					<g id="UI_x2F_Color_x2F_Flat_x2F_Red" class="st6">
						
							<g id="Base_2_" transform="translate(3.583630, 0.239366) rotate(-45.000000) translate(-3.583630, -0.239366) translate(-4.416370, -7.760634)">
							
								<rect x="0" y="0" transform="matrix(-1 2.535182e-06 -2.535182e-06 -1 16.0006 15.9994)" class="st7" width="16" height="16"/>
						</g>
					</g>
					<g id="Positive-Icon_1_" transform="translate(9.000175, 10.267800) scale(-1, -1) translate(-9.000175, -10.267800) ">
					</g>
					<defs>
						<filter id="Adobe_OpacityMaskFilter_2_" filterUnits="userSpaceOnUse" x="1.6" y="3" width="22.6" height="22.6">
							<feColorMatrix  type="matrix" values="1 0 0 0 0  0 1 0 0 0  0 0 1 0 0  0 0 0 1 0"/>
						</filter>
					</defs>
					<mask maskUnits="userSpaceOnUse" x="1.6" y="3" width="22.6" height="22.6" id="mask-6">
						<g class="st8">
							<path id="path-5" class="st0" d="M8.4,13c-0.4,0.4-1,0.4-1.4,0l-1.5-1.5c-0.4-0.4-0.4-1,0-1.4c0.4-0.4,1-0.4,1.4,0l0.8,0.8
								l3.4-3.4c0.4-0.4,1-0.4,1.4,0c0.4,0.4,0.4,1,0,1.4L8.4,13z"/>
						</g>
					</mask>
					<g id="UI_x2F_Color_x2F_Flat_x2F_Green" class="st9">
						
							<g id="Base_3_" transform="translate(12.868164, 14.321289) rotate(-44.000000) translate(-12.868164, -14.321289) translate(4.868164, 6.321289)">
							
								<rect x="0" y="0" transform="matrix(-1 2.969226e-06 -2.969226e-06 -1 16.0006 15.9994)" class="st10" width="16" height="16"/>
						</g>
					</g>
				</g>
			</g>
		</g>
	</g>
</g>
</svg>
